<svg width="75" height="39" viewBox="0 0 75 39" fill="none" xmlns="http://www.w3.org/2000/svg">
<path d="M17.72 34.0039H17.54C17.348 35.2759 16.7 36.3319 15.596 37.1719C14.492 38.0119 12.992 38.4319 11.096 38.4319C9.65599 38.4319 8.31199 38.1559 7.06399 37.6039C5.81599 37.0519 4.72399 36.2359 3.78799 35.1559C2.85199 34.0759 2.11999 32.7319 1.59199 31.1239C1.06399 29.5159 0.799988 27.6559 0.799988 25.5439C0.799988 23.4319 1.07599 21.5599 1.62799 19.9279C2.17999 18.2959 2.94799 16.9279 3.93199 15.8239C4.93999 14.7199 6.13999 13.8799 7.53199 13.3039C8.92399 12.7279 10.472 12.4399 12.176 12.4399C14.432 12.4399 16.376 12.9319 18.008 13.9159C19.64 14.8759 20.924 16.3279 21.86 18.2719L17.396 20.8279C17.012 19.8439 16.412 19.0159 15.596 18.3439C14.78 17.6479 13.64 17.2999 12.176 17.2999C10.472 17.2999 9.11599 17.7919 8.10799 18.7759C7.09999 19.7599 6.59599 21.3079 6.59599 23.4199V27.4519C6.59599 29.5399 7.09999 31.0879 8.10799 32.0959C9.11599 33.0799 10.472 33.5719 12.176 33.5719C12.848 33.5719 13.484 33.4999 14.084 33.3559C14.684 33.1879 15.212 32.9479 15.668 32.6359C16.124 32.2999 16.472 31.9039 16.712 31.4479C16.976 30.9919 17.108 30.4519 17.108 29.8279V28.5679H12.428V23.9959H22.328V37.9999H17.72V34.0039Z" fill="white"/>
<path d="M43.595 34.0039H43.415C43.223 35.2759 42.575 36.3319 41.471 37.1719C40.367 38.0119 38.867 38.4319 36.971 38.4319C35.531 38.4319 34.187 38.1559 32.939 37.6039C31.691 37.0519 30.599 36.2359 29.663 35.1559C28.727 34.0759 27.995 32.7319 27.467 31.1239C26.939 29.5159 26.675 27.6559 26.675 25.5439C26.675 23.4319 26.951 21.5599 27.503 19.9279C28.055 18.2959 28.823 16.9279 29.807 15.8239C30.815 14.7199 32.015 13.8799 33.407 13.3039C34.799 12.7279 36.347 12.4399 38.051 12.4399C40.307 12.4399 42.251 12.9319 43.883 13.9159C45.515 14.8759 46.799 16.3279 47.735 18.2719L43.271 20.8279C42.887 19.8439 42.287 19.0159 41.471 18.3439C40.655 17.6479 39.515 17.2999 38.051 17.2999C36.347 17.2999 34.991 17.7919 33.983 18.7759C32.975 19.7599 32.471 21.3079 32.471 23.4199V27.4519C32.471 29.5399 32.975 31.0879 33.983 32.0959C34.991 33.0799 36.347 33.5719 38.051 33.5719C38.723 33.5719 39.359 33.4999 39.959 33.3559C40.559 33.1879 41.087 32.9479 41.543 32.6359C41.999 32.2999 42.347 31.9039 42.587 31.4479C42.851 30.9919 42.983 30.4519 42.983 29.8279V28.5679H38.303V23.9959H48.203V37.9999H43.595V34.0039Z" fill="white"/>
<path d="M63.193 1.46252C56.6722 1.46252 51.3862 5.80652 51.3862 11.1652C51.3862 13.8842 52.7474 16.3413 54.9398 18.1029C54.8285 19.7198 54.0998 21.8347 51 21.5884C51 21.5884 55.5322 24.3969 59.3815 20.351C60.5772 20.686 61.8593 20.868 63.193 20.868C69.714 20.868 75 16.524 75 11.1652C75 5.80652 69.714 1.46252 63.193 1.46252Z" fill="white"/>
</svg>
