<svg width="156" height="39" viewBox="0 0 156 39" fill="none" xmlns="http://www.w3.org/2000/svg">
<path d="M17.72 34.0039H17.54C17.348 35.2759 16.7 36.3319 15.596 37.1719C14.492 38.0119 12.992 38.4319 11.096 38.4319C9.65599 38.4319 8.31199 38.1559 7.06399 37.6039C5.81599 37.0519 4.72399 36.2359 3.78799 35.1559C2.85199 34.0759 2.11999 32.7319 1.59199 31.1239C1.06399 29.5159 0.799988 27.6559 0.799988 25.5439C0.799988 23.4319 1.07599 21.5599 1.62799 19.9279C2.17999 18.2959 2.94799 16.9279 3.93199 15.8239C4.93999 14.7199 6.13999 13.8799 7.53199 13.3039C8.92399 12.7279 10.472 12.4399 12.176 12.4399C14.432 12.4399 16.376 12.9319 18.008 13.9159C19.64 14.8759 20.924 16.3279 21.86 18.2719L17.396 20.8279C17.012 19.8439 16.412 19.0159 15.596 18.3439C14.78 17.6479 13.64 17.2999 12.176 17.2999C10.472 17.2999 9.11599 17.7919 8.10799 18.7759C7.09999 19.7599 6.59599 21.3079 6.59599 23.4199V27.4519C6.59599 29.5399 7.09999 31.0879 8.10799 32.0959C9.11599 33.0799 10.472 33.5719 12.176 33.5719C12.848 33.5719 13.484 33.4999 14.084 33.3559C14.684 33.1879 15.212 32.9479 15.668 32.6359C16.124 32.2999 16.472 31.9039 16.712 31.4479C16.976 30.9919 17.108 30.4519 17.108 29.8279V28.5679H12.428V23.9959H22.328V37.9999H17.72V34.0039Z" fill="white"/>
<path d="M43.595 34.0039H43.415C43.223 35.2759 42.575 36.3319 41.471 37.1719C40.367 38.0119 38.867 38.4319 36.971 38.4319C35.531 38.4319 34.187 38.1559 32.939 37.6039C31.691 37.0519 30.599 36.2359 29.663 35.1559C28.727 34.0759 27.995 32.7319 27.467 31.1239C26.939 29.5159 26.675 27.6559 26.675 25.5439C26.675 23.4319 26.951 21.5599 27.503 19.9279C28.055 18.2959 28.823 16.9279 29.807 15.8239C30.815 14.7199 32.015 13.8799 33.407 13.3039C34.799 12.7279 36.347 12.4399 38.051 12.4399C40.307 12.4399 42.251 12.9319 43.883 13.9159C45.515 14.8759 46.799 16.3279 47.735 18.2719L43.271 20.8279C42.887 19.8439 42.287 19.0159 41.471 18.3439C40.655 17.6479 39.515 17.2999 38.051 17.2999C36.347 17.2999 34.991 17.7919 33.983 18.7759C32.975 19.7599 32.471 21.3079 32.471 23.4199V27.4519C32.471 29.5399 32.975 31.0879 33.983 32.0959C34.991 33.0799 36.347 33.5719 38.051 33.5719C38.723 33.5719 39.359 33.4999 39.959 33.3559C40.559 33.1879 41.087 32.9479 41.543 32.6359C41.999 32.2999 42.347 31.9039 42.587 31.4479C42.851 30.9919 42.983 30.4519 42.983 29.8279V28.5679H38.303V23.9959H48.203V37.9999H43.595V34.0039Z" fill="white"/>
<path d="M60.193 1.46252C53.6722 1.46252 48.3862 5.80652 48.3862 11.1652C48.3862 13.8842 49.7474 16.3413 51.9398 18.1029C51.8285 19.7198 51.0998 21.8347 48 21.5884C48 21.5884 52.5322 24.3969 56.3815 20.351C57.5772 20.686 58.8593 20.868 60.193 20.868C66.714 20.868 72 16.524 72 11.1652C72 5.80652 66.714 1.46252 60.193 1.46252Z" fill="white"/>
<path d="M68.228 37.964C67.268 37.964 66.464 37.664 65.816 37.064C65.192 36.464 64.796 35.66 64.628 34.652H64.412C64.124 35.876 63.488 36.812 62.504 37.46C61.52 38.084 60.308 38.396 58.868 38.396C56.972 38.396 55.52 37.892 54.512 36.884C53.504 35.876 53 34.544 53 32.888C53 30.896 53.72 29.42 55.16 28.46C56.624 27.476 58.604 26.984 61.1 26.984H64.088V25.796C64.088 24.884 63.848 24.164 63.368 23.636C62.888 23.084 62.084 22.808 60.956 22.808C59.9 22.808 59.06 23.036 58.436 23.492C57.812 23.948 57.296 24.464 56.888 25.04L53.72 22.232C54.488 21.104 55.448 20.228 56.6 19.604C57.776 18.956 59.36 18.632 61.352 18.632C64.04 18.632 66.056 19.22 67.4 20.396C68.744 21.572 69.416 23.288 69.416 25.544V33.824H71.18V37.964H68.228ZM60.848 34.688C61.736 34.688 62.492 34.496 63.116 34.112C63.764 33.728 64.088 33.104 64.088 32.24V30.008H61.496C59.408 30.008 58.364 30.716 58.364 32.132V32.672C58.364 33.368 58.58 33.884 59.012 34.22C59.444 34.532 60.056 34.688 60.848 34.688Z" fill="#CECECE"/>
<path d="M86.3481 34.796H86.1681C86.0241 35.3 85.7961 35.78 85.4841 36.236C85.1721 36.668 84.7881 37.052 84.3321 37.388C83.9001 37.7 83.3961 37.94 82.8201 38.108C82.2681 38.3 81.6921 38.396 81.0921 38.396C78.6921 38.396 76.8801 37.556 75.6561 35.876C74.4321 34.172 73.8201 31.712 73.8201 28.496C73.8201 25.28 74.4321 22.832 75.6561 21.152C76.8801 19.472 78.6921 18.632 81.0921 18.632C82.3161 18.632 83.3961 18.968 84.3321 19.64C85.2921 20.312 85.9041 21.176 86.1681 22.232H86.3481V11.324H91.6761V37.964H86.3481V34.796ZM82.8561 34.076C83.8641 34.076 84.6921 33.836 85.3401 33.356C86.0121 32.852 86.3481 32.168 86.3481 31.304V25.724C86.3481 24.86 86.0121 24.188 85.3401 23.708C84.6921 23.204 83.8641 22.952 82.8561 22.952C81.8481 22.952 81.0081 23.312 80.3361 24.032C79.6881 24.728 79.3641 25.676 79.3641 26.876V30.152C79.3641 31.352 79.6881 32.312 80.3361 33.032C81.0081 33.728 81.8481 34.076 82.8561 34.076Z" fill="#CECECE"/>
<path d="M96.6584 37.964V19.064H101.986V22.268H102.202C102.538 21.26 103.114 20.408 103.93 19.712C104.746 18.992 105.862 18.632 107.278 18.632C108.574 18.632 109.678 18.956 110.59 19.604C111.502 20.252 112.162 21.2 112.57 22.448H112.678C112.846 21.92 113.098 21.428 113.434 20.972C113.794 20.492 114.226 20.084 114.73 19.748C115.234 19.412 115.798 19.148 116.422 18.956C117.046 18.74 117.718 18.632 118.438 18.632C120.262 18.632 121.654 19.28 122.614 20.576C123.598 21.872 124.09 23.72 124.09 26.12V37.964H118.762V26.552C118.762 24.152 117.898 22.952 116.17 22.952C115.378 22.952 114.658 23.18 114.01 23.636C113.362 24.092 113.038 24.788 113.038 25.724V37.964H107.71V26.552C107.71 24.152 106.846 22.952 105.118 22.952C104.734 22.952 104.35 23.012 103.966 23.132C103.606 23.228 103.27 23.396 102.958 23.636C102.67 23.876 102.43 24.176 102.238 24.536C102.07 24.872 101.986 25.268 101.986 25.724V37.964H96.6584Z" fill="#CECECE"/>
<path d="M131.49 17.048C130.41 17.048 129.618 16.808 129.114 16.328C128.634 15.824 128.394 15.188 128.394 14.42V13.628C128.394 12.86 128.634 12.236 129.114 11.756C129.618 11.252 130.41 11 131.49 11C132.57 11 133.35 11.252 133.83 11.756C134.334 12.236 134.586 12.86 134.586 13.628V14.42C134.586 15.188 134.334 15.824 133.83 16.328C133.35 16.808 132.57 17.048 131.49 17.048ZM128.826 19.064H134.154V37.964H128.826V19.064Z" fill="#CECECE"/>
<path d="M139.127 37.964V19.064H144.455V22.268H144.671C145.007 21.284 145.595 20.432 146.435 19.712C147.275 18.992 148.439 18.632 149.927 18.632C151.871 18.632 153.335 19.28 154.319 20.576C155.327 21.872 155.831 23.72 155.831 26.12V37.964H150.503V26.552C150.503 25.328 150.311 24.428 149.927 23.852C149.543 23.252 148.859 22.952 147.875 22.952C147.443 22.952 147.023 23.012 146.615 23.132C146.207 23.228 145.835 23.396 145.499 23.636C145.187 23.876 144.935 24.176 144.743 24.536C144.551 24.872 144.455 25.268 144.455 25.724V37.964H139.127Z" fill="#CECECE"/>
</svg>
